<svg xmlns="http://www.w3.org/2000/svg" width="512" height="512" viewBox="0 0 512 512">
  <defs>
    <linearGradient id="bg" x1="0%" y1="0%" x2="100%" y2="100%">
      <stop offset="0%" style="stop-color:#3b82f6"/>
      <stop offset="100%" style="stop-color:#1d4ed8"/>
    </linearGradient>
  </defs>
  <rect width="512" height="512" rx="100" fill="url(#bg)"/>
  <g fill="white">
    <rect x="120" y="140" width="272" height="180" rx="20" fill="white" fill-opacity="0.95"/>
    <rect x="140" y="160" width="80" height="60" rx="10" fill="#3b82f6"/>
    <rect x="240" y="160" width="80" height="60" rx="10" fill="#3b82f6"/>
    <rect x="340" y="160" width="52" height="60" rx="10" fill="#3b82f6"/>
    <rect x="140" y="240" width="120" height="60" rx="10" fill="#3b82f6"/>
    <rect x="280" y="240" width="112" height="60" rx="10" fill="#3b82f6"/>
    <path d="M140 350 L160 400 L180 350" stroke="white" stroke-width="8" fill="none" stroke-linecap="round" stroke-linejoin="round"/>
    <path d="M200 350 L220 400 L240 350" stroke="white" stroke-width="8" fill="none" stroke-linecap="round" stroke-linejoin="round"/>
    <path d="M260 350 L280 400 L300 350" stroke="white" stroke-width="8" fill="none" stroke-linecap="round" stroke-linejoin="round"/>
    <path d="M320 350 L340 400 L360 350" stroke="white" stroke-width="8" fill="none" stroke-linecap="round" stroke-linejoin="round"/>
    <circle cx="376" cy="120" r="30" fill="#22c55e"/>
    <text x="376" y="130" font-family="Arial" font-size="30" font-weight="bold" fill="white" text-anchor="middle">$</text>
  </g>
</svg>
